<svg aria-hidden="true" style="width:0;height:0;position:absolute;overflow:hidden" xmlns="http://www.w3.org/2000/svg"><defs><symbol id="icon-image" viewBox="0 0 32 32"><path d="m29.996 4 .004.004v23.993l-.004.004H2.003l-.004-.004V4.004L2.003 4h27.993zM30 2H2C.9 2 0 2.9 0 4v24c0 1.1.9 2 2 2h28c1.1 0 2-.9 2-2V4c0-1.1-.9-2-2-2z"/><path d="M26 9a3 3 0 1 1-6 0 3 3 0 0 1 6 0zM28 26H4v-4l7-12 8 10h2l7-6z"/></symbol><symbol id="icon-search" viewBox="0 0 32 32"><path d="m31.008 27.231-7.58-6.447c-.784-.705-1.622-1.029-2.299-.998a11.954 11.954 0 0 0 2.87-7.787c0-6.627-5.373-12-12-12s-12 5.373-12 12 5.373 12 12 12c2.972 0 5.691-1.081 7.787-2.87-.031.677.293 1.515.998 2.299l6.447 7.58c1.104 1.226 2.907 1.33 4.007.23s.997-2.903-.23-4.007zM12 20a8 8 0 1 1 0-16 8 8 0 0 1 0 16z"/></symbol><symbol id="icon-fire" viewBox="0 0 32 32"><path d="M10.031 32c-2.133-4.438-.997-6.981.642-9.376 1.795-2.624 2.258-5.221 2.258-5.221s1.411 1.834.847 4.703c2.493-2.775 2.963-7.196 2.587-8.889C22 17.155 24.408 25.681 21.163 32c17.262-9.767 4.294-24.38 2.036-26.027.753 1.646.895 4.433-.625 5.785C20.001 1.999 13.637-.001 13.637-.001c.753 5.033-2.728 10.536-6.084 14.648-.118-2.007-.243-3.392-1.298-5.312-.237 3.646-3.023 6.617-3.777 10.27-1.022 4.946.765 8.568 7.555 12.394z"/></symbol><symbol id="icon-loader" viewBox="0 0 32 32"><path d="M11 2v4a1 1 0 0 0 2 0V2a1 1 0 0 0-2 0zm0 16v4a1 1 0 0 0 2 0v-4a1 1 0 0 0-2 0zM4.223 5.637l2.83 2.83a.999.999 0 1 0 1.414-1.414l-2.83-2.83a.999.999 0 1 0-1.414 1.414zm11.31 11.31 2.83 2.83a.999.999 0 1 0 1.414-1.414l-2.83-2.83a.999.999 0 1 0-1.414 1.414zM2 13h4a1 1 0 0 0 0-2H2a1 1 0 0 0 0 2zm16 0h4a1 1 0 0 0 0-2h-4a1 1 0 0 0 0 2zM5.637 19.777l2.83-2.83a.999.999 0 1 0-1.414-1.414l-2.83 2.83a.999.999 0 1 0 1.414 1.414zm11.31-11.31 2.83-2.83a.999.999 0 1 0-1.414-1.414l-2.83 2.83a.999.999 0 1 0 1.414 1.414z"/></symbol><symbol id="icon-arrow-left" viewBox="0 0 24 24"><path d="M12.707 18.293 7.414 13H19a1 1 0 0 0 0-2H7.414l5.293-5.293a.999.999 0 1 0-1.414-1.414l-7 7a.998.998 0 0 0 0 1.414l7 7a.999.999 0 1 0 1.414-1.414z"/></symbol><symbol id="icon-arrow-right" viewBox="0 0 24 24"><path d="M11.293 5.707 16.586 11H5a1 1 0 0 0 0 2h11.586l-5.293 5.293a.999.999 0 1 0 1.414 1.414l7-7a1.006 1.006 0 0 0 0-1.414l-7-7a.999.999 0 1 0-1.414 1.414z"/></symbol></defs></svg>